# xmcd
#
# Track frame offsets:
#	150
#	17355
#	57567
#	85796
#	125736
#	150933
#	174686
#	193783
#	213161
#	231371
#	259535
#	275889
#
# Disc length: 3975 seconds
# Revision: 0
# Processed by: cddbd v1.5.2PL0 Copyright (c) Steve Scherf et al.
# Submitted via: dBpowerAMP V12.0
#
DISCID=a40f850c
DTITLE=Mr. B - Joybox
DYEAR=1998
DGENRE=Blues
TTITLE0=Rockin' With Red
TTITLE1=Circle Blues
TTITLE2=My Sunday Best
TTITLE3=Deep Excavation
TTITLE4=I Never Looked Away From You
TTITLE5=Hallelujah Train
TTITLE6=Joybox Rocks
TTITLE7=The Ray
TTITLE8=White Sox
TTITLE9=Little Brother
TTITLE10=Cornell St.
TTITLE11=Hillbilly Holiday
EXTD=
EXTT0=
EXTT1=
EXTT2=
EXTT3=
EXTT4=
EXTT5=
EXTT6=
EXTT7=
EXTT8=
EXTT9=
EXTT10=
EXTT11=
PLAYORDER=
